<svg width="528" height="528" viewBox="0 0 528 528" fill="none" xmlns="http://www.w3.org/2000/svg">
<circle cx="264" cy="264" r="264" fill="#1D1D1F"/>
<path d="M88 251.39V394.533C88 394.533 88.7825 398.451 92.9557 398.974C97.1289 399.496 115.126 399.235 115.126 399.235C115.126 399.235 117.734 365.538 117.995 363.188C118.256 360.837 130.776 317.737 131.819 315.125C132.862 312.513 190.505 153.175 190.766 152.914C191.027 152.652 191.548 150.824 193.113 150.824C194.678 150.824 195.2 152.13 195.2 152.391C195.2 152.652 195.461 393.488 195.461 393.488C195.461 393.488 195.2 399.235 201.199 399.235H235.889C235.889 399.235 236.41 388.786 236.41 386.958C236.41 385.129 236.671 377.293 236.932 375.987C237.193 374.681 248.93 324.79 252.582 315.125C256.233 305.46 306.051 168.325 307.616 165.713C309.181 163.101 324.57 144.299 347.262 153.436C369.954 162.573 368.91 188.177 368.128 191.312C367.345 194.446 311.529 385.391 311.529 385.391C307.616 397.929 319.353 399.235 319.875 399.235H373.866C374.388 398.19 435.943 197.058 435.943 197.058C445.333 166.758 429.683 151.608 426.031 147.167C422.38 142.727 409.599 123.92 376.474 118.173C375.415 117.989 324.048 104.329 294.575 161.011C294.575 161.011 254.668 269.326 235.889 321.655C235.889 321.655 236.15 143.51 235.889 141.682C235.628 139.853 235.889 121.046 209.545 117.128C209.545 117.128 193.113 115.561 184.767 130.188C184.767 130.188 138.079 257.572 114.865 320.872V251.39H88Z" fill="#F3F3F3"/>
</svg>
