<svg width="120" height="47" viewBox="0 0 120 47" fill="none" xmlns="http://www.w3.org/2000/svg">
<g clip-path="url(#clip0_4_20)">
<rect width="120" height="46.3772" fill="#F4F4F4"/>
<path d="M67.3879 0.939514C67.3736 2.79005 67.3537 6.6961 67.3879 7.34521H77.9786C78.363 7.34521 80.7971 7.98578 80.7971 10.3345C80.7971 12.6833 79.0462 13.4093 79.0462 13.4093L61.7509 19.7723C61.7509 19.7723 60.8114 20.0285 60.8968 21.0534C60.9822 22.0783 61.7509 22.2064 61.7509 22.2064L75.1601 22.2918C75.1601 22.2918 81.6512 23.0178 81.6939 29.21C81.7366 35.4021 75.1601 36.1708 75.1601 36.1708H57.6512C56.669 36.1708 56.2847 37.3239 56.2847 37.3239V46.2064C56.2847 46.2064 71.3594 46.2491 76.0569 46.2491C80.7544 46.2491 89.5516 43.6441 89.5516 32.1139C89.5516 20.5836 77.4235 19.9431 77.4235 19.9431H67.4733L80.242 15.331C80.242 15.331 85.6227 13.7509 85.6227 8.24201C85.6227 2.73311 80.5836 0.939514 77.9359 0.939514H67.3879Z" fill="#181818"/>
<path d="M0.0427246 22.121V45.5231C0.0427246 45.5231 0.170838 46.1637 0.854113 46.2491C1.53739 46.3345 4.48401 46.2918 4.48401 46.2918C4.48401 46.2918 4.91105 40.7829 4.95376 40.3986C4.99646 40.0142 7.04628 32.9679 7.2171 32.5409C7.38792 32.1139 16.8256 6.064 16.8683 6.0213C16.9111 5.9786 16.9965 5.67967 17.2527 5.67967C17.5089 5.67967 17.5943 5.8932 17.5943 5.93589C17.5943 5.9786 17.637 45.3523 17.637 45.3523C17.637 45.3523 17.5943 46.2918 18.5765 46.2918H24.2562C24.2562 46.2918 24.3417 44.5836 24.3417 44.2847C24.3417 43.9857 24.3844 42.7046 24.4271 42.4911C24.4698 42.2776 26.3915 34.121 26.9893 32.5409C27.5872 30.9608 35.7438 8.5409 36 8.11383C36.2562 7.68676 38.7758 4.61293 42.4911 6.10674C46.2064 7.60055 46.0356 11.7864 45.9075 12.2989C45.7794 12.8114 36.6406 44.0284 36.6406 44.0284C36 46.0783 37.9217 46.2918 38.0071 46.2918H46.847C46.9324 46.121 57.0107 13.2384 57.0107 13.2384C58.5481 8.28467 55.9858 5.80783 55.3879 5.08183C54.7901 4.35582 52.6975 1.28111 47.274 0.341587C47.1006 0.311532 38.6904 -1.92177 33.8648 7.34515C33.8648 7.34515 27.331 25.0533 24.2562 33.6085C24.2562 33.6085 24.299 4.48394 24.2562 4.185C24.2135 3.88607 24.2562 0.811334 19.9431 0.170769C19.9431 0.170769 17.2527 -0.0854636 15.8861 2.306C15.8861 2.306 8.24201 23.1316 4.4413 33.4804V22.121H0.0427246Z" fill="#181818"/>
<path d="M93.3523 12.5552V33.7794C93.3523 36.8968 96.2989 46.2064 106.762 46.2064C117.224 46.2064 120 36.6833 120 33.5659V12.5552C120 9.86479 116.883 0.085434 106.762 0.170844C96.6406 0.256254 93.3523 9.43774 93.3523 12.5552Z" fill="#181818"/>
<path d="M103.516 14.3489V31.6869C103.516 33.5659 105.523 38.3489 110.562 38.3489C115.601 38.3489 117.651 33.5659 117.651 31.6869V14.3489C117.609 12.7688 116.626 8.07129 110.562 8.114C104.498 8.1567 103.516 13.6228 103.516 14.3489Z" fill="#F4F4F4"/>
</g>
<defs>
<clipPath id="clip0_4_20">
<rect width="120" height="46.3772" fill="white"/>
</clipPath>
</defs>
</svg>
