<svg width="1082" height="868" viewBox="0 0 1082 868" fill="none" xmlns="http://www.w3.org/2000/svg">
<path d="M292.407 65.1515C292.816 64.8273 293.126 64.3741 293.269 63.8371C301.233 33.9615 319.543 18.8823 336.558 11.2018C353.667 3.47876 369.504 3.23322 372.221 3.23322L372.227 3.23358C372.625 3.25983 393.056 4.60535 413.398 15.4479C433.776 26.3104 453.999 46.6293 453.999 85.0093V630.353C453.999 631.566 454.87 632.605 456.065 632.815C457.259 633.026 458.433 632.348 458.848 631.208L629.974 161.044C670.928 58.7454 752.714 3.23322 848.372 3.23322C928.797 3.23322 991.748 38.4593 1031.35 84.6462C1071.02 130.927 1087.04 187.908 1074.2 231.372C1064.25 265.07 1052.33 304.756 1039.4 347.37L907.84 774.195C907.839 774.197 907.838 774.2 907.838 774.202L910.227 774.939C902.372 800.15 896.997 817.359 895.096 823.442L292.407 65.1515ZM292.407 65.1515L86.1251 631.874C85.7101 633.014 84.5365 633.691 83.3417 633.481C82.1469 633.27 81.2759 632.232 81.2759 631.019V417.375H3.45459V850.075C3.45459 858.189 10.0326 864.767 18.1466 864.767H81.2807C81.569 790.24 94.748 716.318 120.244 646.275L314.5 110.709C314.51 110.682 314.52 110.656 314.531 110.63C317.164 104.072 321.859 100.902 326.583 101.397C331.194 101.879 334.743 105.83 334.743 110.972L334.741 850.073C334.741 858.189 341.319 864.767 349.433 864.767H454.002C454.29 789.8 467.548 715.442 493.195 644.986L493.201 644.97L493.224 644.904L493.318 644.644L493.689 643.617L495.138 639.609C496.407 636.098 498.268 630.948 500.639 624.391C505.38 611.275 512.157 592.531 520.302 570.014C536.594 524.98 558.357 464.855 580.246 404.493C602.135 344.131 624.151 283.529 640.947 237.542C649.345 214.549 656.438 195.207 661.559 181.374C664.119 174.458 666.188 168.914 667.681 164.978C668.427 163.011 669.032 161.438 669.484 160.293C669.905 159.225 670.255 158.366 670.463 157.975C704.025 94.65 767.862 98.3425 788.305 102.719C790.93 103.281 794.256 104.187 798.049 105.487C851.803 123.904 880.701 182.233 864.839 236.687L692.051 829.802C689.922 837.109 690.276 842.811 691.889 847.265C693.507 851.738 696.475 855.174 699.931 857.793C703.397 860.419 707.3 862.179 710.637 863.279C714.035 864.4 716.62 864.767 717.392 864.767H879.921L891.844 826.089M292.407 65.1515L891.844 826.089M891.844 826.089C891.816 825.769 891.85 825.444 891.949 825.13L892.122 825.184" stroke="#F3F3F3" stroke-width="5" stroke-linejoin="round"/>
</svg>
