<svg viewBox="0 0 1913 922" fill="none" xmlns="http://www.w3.org/2000/svg">
  <path
  d="M1877.33 494.251C1877.33 557.518 1826.05 608.807 1762.78 608.807C1699.51 608.807 1648.22 557.518 1648.22 494.251V239.944C1648.22 176.677 1699.51 125.388 1762.78 125.388C1826.05 125.388 1877.33 176.677 1877.33 239.944V494.251ZM1700.26 1.50134C1583.7 1.50134 1489.21 95.9938 1489.21 212.556V521.637C1489.21 638.201 1583.7 732.693 1700.26 732.693C1816.83 732.693 1911.32 638.201 1911.32 521.637V212.556C1911.32 95.9938 1816.83 1.50134 1700.26 1.50134Z"
  fill="black" stroke="none" />
  <path
  d="M1218.21 317.876H1218.21C1332.76 317.876 1425.62 410.736 1425.62 525.284C1425.62 639.833 1332.76 732.693 1218.21 732.693H898.957V600.669C898.957 587.298 909.796 576.457 923.168 576.457H1191.29C1253.49 576.457 1303.91 526.038 1303.91 463.841C1303.91 401.645 1253.49 351.225 1191.29 351.225H990.346C980.124 351.225 971.838 342.939 971.838 332.719C971.838 324.961 976.677 318.027 983.957 315.349L1254.94 215.693C1281.52 205.917 1292.1 181.08 1288.99 158.431C1285.88 135.775 1269.02 115.084 1240.71 113.662C1239.58 113.605 1151.14 113.572 1075.32 113.56V15.1827H1236.43C1236.45 15.1827 1236.46 15.1825 1236.47 15.1821C1236.49 15.1818 1236.5 15.1813 1236.51 15.1807L1218.21 317.876ZM1218.21 317.876L1073.81 317.797C1073.09 317.797 1072.46 317.274 1072.34 316.557C1072.21 315.84 1072.62 315.136 1073.3 314.887L1285.87 237.729C1352.7 213.47 1383.48 134.251 1347.31 73.1722C1333.82 50.3902 1312.29 31.8927 1283.51 22.7117C1270.06 18.4237 1258.29 16.5415 1249.88 15.7313C1245.68 15.3262 1242.32 15.1893 1240.02 15.1533C1238.87 15.1353 1237.98 15.1426 1237.39 15.1541C1237.09 15.1599 1236.87 15.1667 1236.72 15.172C1236.65 15.1747 1236.59 15.1769 1236.56 15.1785L1236.52 15.1802L1236.51 15.1807H1236.51L1218.21 317.876Z"
  fill="black" stroke="none" />
  <path
  d="M246.425 54.1899C246.735 53.9941 246.973 53.6857 247.073 53.3082C253.876 27.7861 269.539 14.8773 284.094 8.30676C298.706 1.71075 312.226 1.50043 314.565 1.50043L314.581 1.50153C314.873 1.52124 319.2 1.81244 325.607 3.20892C332.233 4.65332 341.004 7.26379 349.743 11.9223C367.163 21.2075 384.471 38.6088 384.471 71.4058V533.462C384.471 534.19 384.993 534.813 385.71 534.939C386.427 535.065 387.131 534.659 387.38 533.975L532.367 135.628C532.37 135.621 532.373 135.614 532.376 135.606C567.158 48.7136 636.669 1.50043 717.996 1.50043C786.329 1.50043 839.834 31.4338 873.494 70.6956C907.203 110.014 920.88 158.504 909.928 195.59C901.497 224.142 891.395 257.767 880.445 293.871L880.443 293.877M246.425 54.1899L881.879 294.312L880.443 293.877M246.425 54.1899L71.5815 534.539C71.3325 535.223 70.6284 535.629 69.9115 535.503C69.1946 535.377 68.672 534.754 68.672 534.026V352.392H1.5V719.626C1.5 726.843 7.34974 732.692 14.5667 732.692H68.6741C68.8476 669.411 80.0043 606.635 101.652 547.163L266.242 93.3903C266.248 93.3745 266.254 93.3587 266.26 93.343C268.425 87.9501 272.193 85.5237 275.833 85.9046C279.404 86.2784 282.192 89.3416 282.192 93.4031V719.626C282.192 726.843 288.042 732.692 295.257 732.692H384.473C384.646 669.039 395.868 605.894 417.644 546.071L417.649 546.073C417.644 546.071 417.644 546.071 417.644 546.07L417.649 546.056L417.669 546.001L417.749 545.78L418.063 544.91L419.291 541.514C420.366 538.54 421.943 534.176 423.951 528.62C427.968 517.508 433.711 501.626 440.612 482.548C454.415 444.392 472.855 393.45 491.401 342.307C509.947 291.164 528.601 239.818 542.831 200.855C549.946 181.374 555.956 164.987 560.295 153.267C562.464 147.408 564.216 142.713 565.48 139.38C566.112 137.714 566.623 136.385 567.004 135.418C567.367 134.498 567.65 133.81 567.805 133.517C596.042 80.2366 649.746 83.3265 666.973 87.015C669.171 87.4862 671.964 88.2457 675.158 89.3401C720.378 104.834 744.705 153.912 731.353 199.745L584.956 702.277C583.122 708.574 583.414 713.541 584.831 717.457C586.252 721.383 588.853 724.385 591.852 726.658C594.858 728.936 598.23 730.454 601.103 731.401C604.012 732.361 606.273 732.692 607.02 732.692H745.183L755.457 699.361C755.421 699.135 755.437 698.901 755.507 698.677L755.654 698.723C755.507 698.677 755.507 698.677 755.507 698.677L755.507 698.676L755.508 698.674L755.511 698.665L755.522 698.63L755.566 698.489L755.741 697.929L756.428 695.729C757.034 693.792 757.928 690.928 759.086 687.22C761.401 679.805 764.767 669.016 768.971 655.522M246.425 54.1899L768.971 655.522M880.443 293.877L768.972 655.52M880.443 293.877L768.972 655.52M768.972 655.52C768.972 655.52 768.971 655.521 768.971 655.522M768.972 655.52L768.971 655.522"
  fill="black" stroke="none" />
  <path
    d="M1214.04 816.346H1221.42L1244.01 873.046H1235.37L1229.16 857.296H1205.85L1199.73 873.046H1191.18L1214.04 816.346ZM1208.1 850.726H1226.73L1222.95 840.916C1221.93 838.336 1221 835.846 1220.16 833.446C1219.32 831.046 1218.48 828.586 1217.64 826.066H1217.46C1216.62 828.586 1215.75 831.016 1214.85 833.356C1213.95 835.696 1212.99 838.216 1211.97 840.916L1208.1 850.726ZM1269.74 816.346H1288.19C1291.13 816.346 1293.71 816.766 1295.93 817.606C1298.21 818.446 1300.1 819.616 1301.6 821.116C1303.1 822.616 1304.24 824.416 1305.02 826.516C1305.8 828.556 1306.19 830.806 1306.19 833.266C1306.19 835.426 1305.86 837.376 1305.2 839.116C1304.54 840.856 1303.67 842.386 1302.59 843.706C1301.51 844.966 1300.25 846.076 1298.81 847.036C1297.43 847.936 1296.02 848.686 1294.58 849.286L1309.52 873.046H1300.25L1286.84 850.816H1277.57V873.046H1269.74V816.346ZM1277.57 844.066H1284.41C1286.27 844.066 1287.98 843.886 1289.54 843.526C1291.16 843.106 1292.54 842.506 1293.68 841.726C1294.88 840.886 1295.81 839.806 1296.47 838.486C1297.19 837.166 1297.55 835.576 1297.55 833.716C1297.55 830.056 1296.53 827.356 1294.49 825.616C1292.51 823.876 1289.6 823.006 1285.76 823.006H1277.57V844.066ZM1360.38 815.536C1364.22 815.536 1367.76 816.166 1371 817.426C1374.24 818.626 1377.03 820.456 1379.37 822.916C1381.77 825.316 1383.63 828.346 1384.95 832.006C1386.27 835.606 1386.93 839.836 1386.93 844.696C1386.93 850.996 1385.64 856.366 1383.06 860.806C1380.48 865.246 1376.31 869.086 1370.55 872.326L1358.31 879.166C1360.11 879.166 1361.76 879.376 1363.26 879.796C1364.82 880.276 1366.38 880.786 1367.94 881.326C1369.5 881.866 1371.12 882.346 1372.8 882.766C1374.48 883.246 1376.34 883.486 1378.38 883.486C1379.58 883.486 1380.84 883.276 1382.16 882.856C1383.54 882.496 1384.83 881.896 1386.03 881.056L1389.27 887.086C1387.59 888.166 1385.73 888.976 1383.69 889.516C1381.71 890.056 1379.85 890.326 1378.11 890.326C1376.01 890.326 1373.91 890.026 1371.81 889.426C1369.77 888.886 1367.73 888.256 1365.69 887.536C1363.65 886.876 1361.64 886.246 1359.66 885.646C1357.68 885.106 1355.7 884.836 1353.72 884.836C1352.16 884.836 1350.6 885.076 1349.04 885.556C1347.54 886.036 1346.01 886.726 1344.45 887.626L1341.03 881.416L1354.89 873.406C1351.71 872.926 1348.8 871.966 1346.16 870.526C1343.58 869.026 1341.33 867.106 1339.41 864.766C1337.55 862.366 1336.08 859.486 1335 856.126C1333.98 852.766 1333.47 848.956 1333.47 844.696C1333.47 839.956 1334.16 835.786 1335.54 832.186C1336.92 828.526 1338.81 825.466 1341.21 823.006C1343.61 820.546 1346.43 818.686 1349.67 817.426C1352.97 816.166 1356.54 815.536 1360.38 815.536ZM1342.47 844.696C1342.47 848.536 1342.89 851.896 1343.73 854.776C1344.57 857.596 1345.74 859.966 1347.24 861.886C1348.8 863.806 1350.63 865.246 1352.73 866.206C1354.83 867.166 1357.11 867.646 1359.57 867.646C1362.03 867.646 1364.37 867.166 1366.59 866.206C1368.81 865.186 1370.76 863.716 1372.44 861.796C1374.12 859.816 1375.44 857.416 1376.4 854.596C1377.42 851.716 1377.93 848.416 1377.93 844.696C1377.93 840.736 1377.45 837.346 1376.49 834.526C1375.59 831.706 1374.33 829.396 1372.71 827.596C1371.09 825.736 1369.17 824.386 1366.95 823.546C1364.79 822.646 1362.48 822.196 1360.02 822.196C1357.56 822.196 1355.25 822.646 1353.09 823.546C1350.93 824.446 1349.07 825.826 1347.51 827.686C1345.95 829.546 1344.72 831.886 1343.82 834.706C1342.92 837.526 1342.47 840.856 1342.47 844.696ZM1415.6 816.346H1423.88V850.276C1423.88 856.336 1424.99 860.656 1427.21 863.236C1429.43 865.816 1433 867.106 1437.92 867.106C1442.78 867.106 1446.32 865.666 1448.54 862.786C1450.82 859.906 1451.96 856.096 1451.96 851.356V816.346H1460.24V851.086C1460.24 858.826 1458.26 864.556 1454.3 868.276C1450.34 871.996 1444.88 873.856 1437.92 873.856C1430.9 873.856 1425.41 872.026 1421.45 868.366C1417.55 864.646 1415.6 858.736 1415.6 850.636V816.346ZM1500.62 816.346V873.046H1492.34V816.346H1500.62ZM1570.46 816.346V823.366H1552.73V873.046H1544.45V823.366H1527.08V816.346H1570.46ZM1596.92 816.346H1631.12V823.186H1605.2V840.196H1628.78V846.946H1605.2V866.206H1631.39V873.046H1596.92V816.346ZM1697.54 816.346V823.366H1679.81V873.046H1671.53V823.366H1654.16V816.346H1697.54ZM1723.27 816.346H1731.55V850.276C1731.55 856.336 1732.66 860.656 1734.88 863.236C1737.1 865.816 1740.67 867.106 1745.59 867.106C1750.45 867.106 1753.99 865.666 1756.21 862.786C1758.49 859.906 1759.63 856.096 1759.63 851.356V816.346H1767.91V851.086C1767.91 858.826 1765.93 864.556 1761.97 868.276C1758.01 871.996 1752.55 873.856 1745.59 873.856C1738.57 873.856 1733.08 872.026 1729.12 868.366C1725.22 864.646 1723.27 858.736 1723.27 850.636V816.346ZM1800.01 816.346H1818.46C1821.4 816.346 1823.98 816.766 1826.2 817.606C1828.48 818.446 1830.37 819.616 1831.87 821.116C1833.37 822.616 1834.51 824.416 1835.29 826.516C1836.07 828.556 1836.46 830.806 1836.46 833.266C1836.46 835.426 1836.13 837.376 1835.47 839.116C1834.81 840.856 1833.94 842.386 1832.86 843.706C1831.78 844.966 1830.52 846.076 1829.08 847.036C1827.7 847.936 1826.29 848.686 1824.85 849.286L1839.79 873.046H1830.52L1817.11 850.816H1807.84V873.046H1800.01V816.346ZM1807.84 844.066H1814.68C1816.54 844.066 1818.25 843.886 1819.81 843.526C1821.43 843.106 1822.81 842.506 1823.95 841.726C1825.15 840.886 1826.08 839.806 1826.74 838.486C1827.46 837.166 1827.82 835.576 1827.82 833.716C1827.82 830.056 1826.8 827.356 1824.76 825.616C1822.78 823.876 1819.87 823.006 1816.03 823.006H1807.84V844.066ZM1882.64 816.346H1890.02L1912.61 873.046H1903.97L1897.76 857.296H1874.45L1868.33 873.046H1859.78L1882.64 816.346ZM1876.7 850.726H1895.33L1891.55 840.916C1890.53 838.336 1889.6 835.846 1888.76 833.446C1887.92 831.046 1887.08 828.586 1886.24 826.066H1886.06C1885.22 828.586 1884.35 831.016 1883.45 833.356C1882.55 835.696 1881.59 838.216 1880.57 840.916L1876.7 850.726Z"
    fill="red" />
</svg>